<svg xmlns="http://www.w3.org/2000/svg" viewBox="0 0 1440 560" preserveAspectRatio="xMidYMid slice" fill="none">
  <!-- Circulos decorativos grandes -->
  <circle cx="1100" cy="280" r="220" stroke="white" stroke-width="0.8" opacity="0.15"/>
  <circle cx="1100" cy="280" r="160" stroke="white" stroke-width="0.8" opacity="0.12"/>
  <circle cx="1100" cy="280" r="100" stroke="white" stroke-width="0.8" opacity="0.1"/>
  <circle cx="1100" cy="280" r="50" stroke="white" stroke-width="1" opacity="0.2"/>

  <circle cx="180" cy="420" r="150" stroke="white" stroke-width="0.8" opacity="0.1"/>
  <circle cx="180" cy="420" r="90" stroke="white" stroke-width="0.6" opacity="0.08"/>

  <circle cx="700" cy="-40" r="180" stroke="white" stroke-width="0.6" opacity="0.08"/>

  <!-- Rede de nós e conexões -->
  <!-- Nós principais -->
  <circle cx="320" cy="140" r="4" fill="white" opacity="0.5"/>
  <circle cx="480" cy="80" r="3" fill="white" opacity="0.4"/>
  <circle cx="600" cy="200" r="5" fill="white" opacity="0.6"/>
  <circle cx="750" cy="120" r="3" fill="white" opacity="0.4"/>
  <circle cx="900" cy="180" r="4" fill="white" opacity="0.5"/>
  <circle cx="1020" cy="100" r="3" fill="white" opacity="0.35"/>
  <circle cx="1150" cy="160" r="4" fill="white" opacity="0.4"/>
  <circle cx="1280" cy="90" r="3" fill="white" opacity="0.3"/>

  <circle cx="200" cy="280" r="4" fill="white" opacity="0.45"/>
  <circle cx="380" cy="320" r="5" fill="white" opacity="0.55"/>
  <circle cx="520" cy="390" r="3" fill="white" opacity="0.4"/>
  <circle cx="680" cy="310" r="4" fill="white" opacity="0.5"/>
  <circle cx="820" cy="370" r="3" fill="white" opacity="0.35"/>
  <circle cx="960" cy="290" r="5" fill="white" opacity="0.5"/>
  <circle cx="1200" cy="400" r="4" fill="white" opacity="0.4"/>
  <circle cx="1350" cy="320" r="3" fill="white" opacity="0.3"/>

  <circle cx="100" cy="160" r="3" fill="white" opacity="0.35"/>
  <circle cx="440" cy="460" r="4" fill="white" opacity="0.4"/>
  <circle cx="760" cy="480" r="3" fill="white" opacity="0.35"/>
  <circle cx="1080" cy="470" r="4" fill="white" opacity="0.4"/>

  <!-- Linhas de conexão -->
  <line x1="320" y1="140" x2="480" y2="80" stroke="white" stroke-width="0.6" opacity="0.2"/>
  <line x1="480" y1="80" x2="600" y2="200" stroke="white" stroke-width="0.6" opacity="0.2"/>
  <line x1="600" y1="200" x2="750" y2="120" stroke="white" stroke-width="0.6" opacity="0.2"/>
  <line x1="750" y1="120" x2="900" y2="180" stroke="white" stroke-width="0.6" opacity="0.18"/>
  <line x1="900" y1="180" x2="1020" y2="100" stroke="white" stroke-width="0.6" opacity="0.18"/>
  <line x1="1020" y1="100" x2="1150" y2="160" stroke="white" stroke-width="0.6" opacity="0.18"/>
  <line x1="1150" y1="160" x2="1280" y2="90" stroke="white" stroke-width="0.6" opacity="0.15"/>

  <line x1="200" y1="280" x2="380" y2="320" stroke="white" stroke-width="0.6" opacity="0.2"/>
  <line x1="380" y1="320" x2="520" y2="390" stroke="white" stroke-width="0.6" opacity="0.2"/>
  <line x1="520" y1="390" x2="680" y2="310" stroke="white" stroke-width="0.6" opacity="0.2"/>
  <line x1="680" y1="310" x2="820" y2="370" stroke="white" stroke-width="0.6" opacity="0.18"/>
  <line x1="820" y1="370" x2="960" y2="290" stroke="white" stroke-width="0.6" opacity="0.18"/>
  <line x1="960" y1="290" x2="1200" y2="400" stroke="white" stroke-width="0.6" opacity="0.18"/>
  <line x1="1200" y1="400" x2="1350" y2="320" stroke="white" stroke-width="0.6" opacity="0.15"/>

  <!-- Conexões cruzadas entre as duas camadas -->
  <line x1="320" y1="140" x2="200" y2="280" stroke="white" stroke-width="0.6" opacity="0.15"/>
  <line x1="480" y1="80" x2="380" y2="320" stroke="white" stroke-width="0.5" opacity="0.12"/>
  <line x1="600" y1="200" x2="680" y2="310" stroke="white" stroke-width="0.6" opacity="0.18"/>
  <line x1="750" y1="120" x2="680" y2="310" stroke="white" stroke-width="0.5" opacity="0.15"/>
  <line x1="900" y1="180" x2="960" y2="290" stroke="white" stroke-width="0.6" opacity="0.18"/>
  <line x1="1020" y1="100" x2="960" y2="290" stroke="white" stroke-width="0.5" opacity="0.12"/>
  <line x1="1150" y1="160" x2="1200" y2="400" stroke="white" stroke-width="0.5" opacity="0.13"/>

  <line x1="100" y1="160" x2="200" y2="280" stroke="white" stroke-width="0.5" opacity="0.15"/>
  <line x1="100" y1="160" x2="320" y2="140" stroke="white" stroke-width="0.5" opacity="0.12"/>
  <line x1="440" y1="460" x2="380" y2="320" stroke="white" stroke-width="0.5" opacity="0.15"/>
  <line x1="440" y1="460" x2="520" y2="390" stroke="white" stroke-width="0.5" opacity="0.15"/>
  <line x1="760" y1="480" x2="680" y2="310" stroke="white" stroke-width="0.5" opacity="0.13"/>
  <line x1="760" y1="480" x2="820" y2="370" stroke="white" stroke-width="0.5" opacity="0.13"/>
  <line x1="1080" y1="470" x2="960" y2="290" stroke="white" stroke-width="0.5" opacity="0.13"/>
  <line x1="1080" y1="470" x2="1200" y2="400" stroke="white" stroke-width="0.5" opacity="0.13"/>

  <!-- Nós pequenos adicionais -->
  <circle cx="320" cy="140" r="7" stroke="white" stroke-width="0.8" opacity="0.2" fill="none"/>
  <circle cx="600" cy="200" r="8" stroke="white" stroke-width="0.8" opacity="0.2" fill="none"/>
  <circle cx="960" cy="290" r="7" stroke="white" stroke-width="0.8" opacity="0.2" fill="none"/>
  <circle cx="380" cy="320" r="8" stroke="white" stroke-width="0.8" opacity="0.18" fill="none"/>
  <circle cx="1100" cy="280" r="8" stroke="white" stroke-width="1" opacity="0.25" fill="none"/>
</svg>
